<svg id="Layer_1" data-name="Layer 1" xmlns="http://www.w3.org/2000/svg" viewBox="0 0 197.88 73.39"><defs><style>.cls-1{fill:#333;}.cls-2{fill:#1d976c;}</style></defs><title>error</title><path class="cls-1" d="M41.94,42.8H49v9.7H41.94V66.12H29.39V52.5H3.79L3.23,45l26-41.6H41.94Zm-27,0H29.39V20.17l-.26-.09-1,1.77Z"/><path class="cls-1" d="M188.12,42.8h7.11v9.7h-7.11V66.12H175.58V52.5H150L149.41,45l26-41.6h12.67Zm-27,0h14.44V20.17l-.26-.09-1,1.77Z"/><path class="cls-2" d="M100.66,70a33.11,33.11,0,1,1,33.11-33.11A33.06,33.06,0,0,1,100.66,70Zm0-61.11a28,28,0,1,0,28,28A28,28,0,0,0,100.66,8.92Z"/><path class="cls-2" d="M101.15,40.82c6.48.32,11.31,3,14.26,8.7a2.38,2.38,0,0,1,.36,1.5,1.89,1.89,0,0,1-1.59,1.58,1.84,1.84,0,0,1-2-1.08,11.35,11.35,0,0,0-2.06-3.14A11.74,11.74,0,0,0,101,44.64a11.54,11.54,0,0,0-9.28,4.52,15.67,15.67,0,0,0-1.39,2.39,1.92,1.92,0,0,1-2.21,1,1.84,1.84,0,0,1-1.35-2,3.75,3.75,0,0,1,.38-1.09A14.88,14.88,0,0,1,98.08,41.2C99.14,41,100.23,40.93,101.15,40.82Z"/><path class="cls-2" d="M109.68,24.39a5.44,5.44,0,0,1,5.48,5.3,1.57,1.57,0,0,1-1.5,1.7A1.55,1.55,0,0,1,112,29.85a2.29,2.29,0,0,0-1.35-2.11,2.19,2.19,0,0,0-2.31.22,2.32,2.32,0,0,0-1,1.92,1.56,1.56,0,0,1-3.11,0,5.09,5.09,0,0,1,.08-1A5.45,5.45,0,0,1,109.68,24.39Z"/><path class="cls-2" d="M87,29.56a5.43,5.43,0,0,1,10.85.13,1.56,1.56,0,1,1-3.12.1,2.33,2.33,0,0,0-2-2.26,2.3,2.3,0,0,0-2.51,1.54,2.66,2.66,0,0,0-.13.69A1.57,1.57,0,1,1,87,29.56Z"/></svg>