<svg id="Layer_1" data-name="Layer 1" xmlns="http://www.w3.org/2000/svg" viewBox="0 0 16 16"><defs><style>.cls-1{font-size:68.37px;font-family:MyriadPro-Regular, Myriad Pro;letter-spacing:-0.02em;}.cls-1,.cls-3{fill:#fff;}.cls-2{letter-spacing:0em;}.cls-3{font-size:11.86px;font-family:VarelaRound, Varela Round;}</style></defs><text class="cls-1" transform="translate(-84.5 -8.34)">P<tspan class="cls-2" x="35.28" y="0">inned</tspan></text><path d="M6.6.74.8,6.55a.36.36,0,0,0-.08.09,1.93,1.93,0,0,0-.44.85A2,2,0,0,0,.8,9.34l5.8,5.8a2,2,0,0,0,2.8,0l5.8-5.8,0,0A1.42,1.42,0,0,0,15.45,9a2,2,0,0,0-.25-2.47L9.4.74A2,2,0,0,0,6.92.49,2.51,2.51,0,0,0,6.6.74Z"/><text class="cls-3" transform="translate(4.67 12.47)">F</text></svg>