<svg xmlns="http://www.w3.org/2000/svg" viewBox="0 0 103.32 50.24" xmlns:v="https://vecta.io/nano"><g opacity=".5" fill="#06f"><path d="M45.78 44l-1.5-.22a17.92 17.92 0 0 1-4.93-1.71.31.31 0 0 1-.19-.39.35.35 0 0 1 .35-.23.74.74 0 0 1 .24.11 18.17 18.17 0 0 0 4.17 1.48c.62.14 1.26.24 1.89.32a.32.32 0 0 1 0 .64zm7.41-3.9a.33.33 0 0 1 .23-.31A15.5 15.5 0 0 0 58 37l.76-.73a.31.31 0 0 1 .48 0 .32.32 0 0 1 0 .48 15.77 15.77 0 0 1-3.51 2.73 17.7 17.7 0 0 1-2 1c-.3.01-.54-.12-.54-.38zm-9.44 2.24l-.7-.18a17.34 17.34 0 0 1-2.52-.94 16.19 16.19 0 0 1-1.74-.94.33.33 0 0 1-.14-.46.32.32 0 0 1 .47-.09 18.18 18.18 0 0 0 2.24 1.15 17.4 17.4 0 0 0 2.34.79.79.79 0 0 1 .22.06.32.32 0 0 1 .2.37.35.35 0 0 1-.37.24zm1.4-31.06a.32.32 0 0 1 .33.27.3.3 0 0 1-.24.36l-1.14.27a14.42 14.42 0 0 0-2.3.85q-.67.33-1.32.72a.36.36 0 0 1-.4 0 .34.34 0 0 1-.12-.34.31.31 0 0 1 .16-.21A15.2 15.2 0 0 1 43 11.85a15.63 15.63 0 0 1 2.11-.56zM30.36 21.71c0 .2-.08.42-.12.64a16.35 16.35 0 0 0-.28 2.4v.82c0 .27-.11.36-.28.38a.32.32 0 0 1-.37-.34 20.83 20.83 0 0 1 .16-2.61l.25-1.37a.322.322 0 0 1 .64.08zm33.79-1.27a.31.31 0 0 1-.25.32.32.32 0 0 1-.38-.22l-.2-.59A16 16 0 0 0 62 17.12a1.21 1.21 0 0 1-.09-.2.32.32 0 0 1 .58-.24l.7 1.25a17.55 17.55 0 0 1 1 2.33.39.39 0 0 1-.04.18zM43.46 40.49a.31.31 0 0 1-.43.3l-1.14-.41a15.82 15.82 0 0 1-2.5-1.26.32.32 0 0 1-.16-.36.33.33 0 0 1 .29-.25.38.38 0 0 1 .25.09 16.38 16.38 0 0 0 1.49.8 14.73 14.73 0 0 0 1.94.76.33.33 0 0 1 .26.33zM35 14.35a.31.31 0 0 1 .27.18.27.27 0 0 1 0 .34l-.49.62a17 17 0 0 0-1 1.48.32.32 0 0 1-.49.1.33.33 0 0 1-.06-.45l.91-1.32.64-.81a.34.34 0 0 1 .22-.14zm3.32-4.55a.32.32 0 0 1 .2.57l-.28.18a17.92 17.92 0 0 0-1.82 1.32.38.38 0 0 1-.29.12.33.33 0 0 1-.28-.23.3.3 0 0 1 .1-.34l.8-.63 1.34-.91a.36.36 0 0 1 .23-.08zm27.44 13.51a.3.3 0 0 1-.31-.26l-.21-1.13-.36-1.4a.34.34 0 0 1 .2-.43.33.33 0 0 1 .42.24 19.73 19.73 0 0 1 .55 2.42.8.8 0 0 1 0 .31.32.32 0 0 1-.29.25zm-.24 5.96a.31.31 0 0 1 .31.39l-.33 1.29a16.15 16.15 0 0 1-.44 1.28.32.32 0 0 1-.32.22.33.33 0 0 1-.3-.24.45.45 0 0 1 0-.23 17.08 17.08 0 0 0 .56-1.71l.18-.74a.31.31 0 0 1 .34-.26zm-.96-11.35a.32.32 0 0 1-.24.31.3.3 0 0 1-.36-.16l-.32-.64c-.29-.55-.61-1.08-1-1.6a.35.35 0 0 1 0-.4.32.32 0 0 1 .55 0q.44.66.81 1.35l.47.92a.47.47 0 0 1 .09.22zm-30.41-.2c.3 0 .45.25.33.47l-.47.92a18.65 18.65 0 0 0-.57 1.37.38.38 0 0 1-.12.21.33.33 0 0 1-.39 0 .31.31 0 0 1-.12-.37l.33-.86c.22-.53.48-1 .75-1.55.11-.11.16-.19.26-.19zm25.43 15.45a.4.4 0 0 1 .07-.21 14.53 14.53 0 0 0 1.12-2.23.321.321 0 1 1 .6.23 14.87 14.87 0 0 1-.64 1.41l-.55 1a.31.31 0 0 1-.37.15.33.33 0 0 1-.23-.35zM37.5 13.62a.33.33 0 0 1 .31.2.31.31 0 0 1-.07.35l-.71.68A11 11 0 0 0 36 16a.43.43 0 0 1-.24.18.33.33 0 0 1-.32-.53 17.11 17.11 0 0 1 1.29-1.4l.56-.52a.3.3 0 0 1 .21-.11zm12.56 26.05a.31.31 0 0 1 .28-.32l1.1-.26 1.33-.43a.32.32 0 0 1 .39.09.32.32 0 0 1-.17.52l-1 .34c-.33.1-1 .26-1.5.37a.32.32 0 0 1-.43-.31z"/><path d="M53.32 42.79a.3.3 0 0 1 .21-.25l1.24-.48a.31.31 0 0 1 .42.19.32.32 0 0 1-.19.41l-1.23.47a.33.33 0 0 1-.45-.34zM41.9 8.11a.33.33 0 0 1 .33.26.32.32 0 0 1-.21.37l-1 .38-.23.09a.3.3 0 0 1-.4-.18.32.32 0 0 1 .16-.42l1.29-.49zm-6.4 29.42a.3.3 0 0 1 .18-.3.3.3 0 0 1 .34 0l1 .95a.3.3 0 0 1 0 .44.32.32 0 0 1-.43 0l-.89-.82c-.1-.04-.21-.12-.2-.27zm-.34-3.26a.35.35 0 0 1-.21.3.33.33 0 0 1-.38-.12q-.3-.45-.57-.93c0-.08-.1-.16-.14-.24a.32.32 0 0 1 .13-.43.31.31 0 0 1 .43.12l.26.44.4.63a.63.63 0 0 1 .08.23zm23.93-22.58a.3.3 0 0 1 .18-.31.32.32 0 0 1 .36 0l.76.68a2.19 2.19 0 0 1 .23.21.32.32 0 0 1 0 .44.3.3 0 0 1-.45 0l-1-.9a.23.23 0 0 1-.08-.12zm2.3 6.72a.33.33 0 0 1-.27-.15l-.68-1.11a.32.32 0 0 1 .09-.47.32.32 0 0 1 .46.13l.66 1.08a.33.33 0 0 1-.26.52zM39.47 37a.31.31 0 0 1-.16.3.29.29 0 0 1-.32 0 11.7 11.7 0 0 1-1.08-.9.32.32 0 0 1 0-.43.3.3 0 0 1 .43-.05l1 .87a.25.25 0 0 1 .13.21zm16.82-24.63a.32.32 0 0 1-.46.32L54.64 12a.3.3 0 0 1-.1-.42.32.32 0 0 1 .45-.12l.74.41.42.24a.3.3 0 0 1 .14.26z"/><path d="M60.41 38.4a.31.31 0 0 1 .28.19.31.31 0 0 1-.09.37l-.8.73-.2.17a.32.32 0 0 1-.44 0 .33.33 0 0 1 0-.45l1-.87a.32.32 0 0 1 .25-.14zM62.14 23a.34.34 0 0 1-.29.36.33.33 0 0 1-.35-.25l-.29-1.26a.32.32 0 0 1 .23-.41.32.32 0 0 1 .39.25l.24 1 .07.31zm-22.5-10.31a.31.31 0 0 1-.31-.23.34.34 0 0 1 .16-.38l.92-.51.25-.13a.31.31 0 0 1 .42.15.3.3 0 0 1-.08.41l-1.15.64a.23.23 0 0 1-.21.05zM50.4 42.62a.32.32 0 0 1-.34-.27.31.31 0 0 1 .24-.35l.9-.17.42-.09A.32.32 0 0 1 52 42a.32.32 0 0 1-.2.4l-1.4.22zm1.94-31.53A2.13 2.13 0 0 1 52 11l-1-.25a.3.3 0 0 1-.24-.26.31.31 0 0 1 .4-.36l1.11.29a1.06 1.06 0 0 1 .19.06.31.31 0 0 1 .2.36.33.33 0 0 1-.32.25zM34.07 29.18a.29.29 0 0 1 .27.2l.42 1.29a.3.3 0 0 1-.2.39.31.31 0 0 1-.4-.19c-.17-.42-.3-.85-.43-1.28a.33.33 0 0 1 .34-.41zm.3-7.42v.25c-.11.34-.17.68-.25 1a.31.31 0 0 1-.38.28.33.33 0 0 1-.25-.42l.29-1.2a.321.321 0 1 1 .64.06zM53.66 8.11a.33.33 0 0 1 0 .65.35.35 0 0 1-.32-.33.34.34 0 0 1 .32-.32z"/><path d="M61.81 28a.32.32 0 1 1-.32.32.31.31 0 0 1 .32-.32zM33.08 14.53a.32.32 0 0 1 .31-.33.33.33 0 1 1 0 .65.32.32 0 0 1-.31-.32zm22.37-4.24a.33.33 0 0 1 .33.32.33.33 0 0 1-.65 0 .33.33 0 0 1 .32-.32zm6.71 26.13a.32.32 0 0 1 .32.32.3.3 0 0 1-.31.32.32.32 0 0 1-.33-.31.32.32 0 0 1 .32-.33zm-20.77 1.66a.31.31 0 0 1 .32.32.32.32 0 1 1-.64 0 .3.3 0 0 1 .32-.32zm6.05-30.61a.31.31 0 0 1-.32.32.32.32 0 0 1-.33-.32.34.34 0 0 1 .33-.32.32.32 0 0 1 .32.32zm15.02 13.35a.33.33 0 1 1 .33-.32.32.32 0 0 1-.33.32zM58 12a.31.31 0 0 1-.33.31.34.34 0 0 1-.32-.33.33.33 0 0 1 .34-.31.31.31 0 0 1 .31.33zm-1.63 24.72a.33.33 0 0 1 .32.32.34.34 0 0 1-.33.32A.32.32 0 0 1 56 37a.32.32 0 0 1 .37-.28zm6.76-13.98a.31.31 0 0 1 .32.32.32.32 0 0 1-.32.32.33.33 0 0 1-.33-.33.32.32 0 0 1 .33-.31zm-31.74-1.37a.32.32 0 0 1 .31.33.3.3 0 0 1-.32.31.32.32 0 0 1-.32-.32.32.32 0 0 1 .33-.32zm31.07 13.11a.3.3 0 0 1-.32.31.32.32 0 0 1-.32-.32.34.34 0 0 1 .33-.32.31.31 0 0 1 .31.33zm.36-5.19a.33.33 0 0 1 .33.32.32.32 0 0 1-.32.32.31.31 0 0 1-.33-.32.32.32 0 0 1 .32-.32zM49.45 7.57a.32.32 0 1 1 .32.32.32.32 0 0 1-.32-.32zM31.37 29.2a.32.32 0 0 1 .32.32.32.32 0 0 1-.33.32.31.31 0 0 1-.31-.33.3.3 0 0 1 .32-.31zM35 19a.32.32 0 0 1 .32.32.33.33 0 0 1-.65 0A.32.32 0 0 1 35 19zm29.17 10.28a.32.32 0 1 1 0 .64.32.32 0 1 1 0-.64zM31.93 17.06a.31.31 0 0 1-.32-.32.33.33 0 1 1 .32.32zM39 10.93a.31.31 0 0 1 .32.32.32.32 0 0 1-.33.32.33.33 0 0 1-.32-.32.32.32 0 0 1 .33-.32zm22 23.46a.32.32 0 1 1-.32-.31.32.32 0 0 1 .32.31zM51.41 9.24a.33.33 0 0 1 .65 0 .33.33 0 0 1-.65 0zm-3.29 34.55a.32.32 0 0 1 .33-.32.35.35 0 0 1 .32.33.34.34 0 0 1-.33.32.32.32 0 0 1-.32-.33zM44.17 9.23a.31.31 0 0 1-.31.32.32.32 0 0 1-.33-.32.33.33 0 0 1 .32-.32.31.31 0 0 1 .32.32zm7.13 31.63a.31.31 0 0 1-.31.32.34.34 0 0 1-.34-.31.35.35 0 0 1 .33-.33.31.31 0 0 1 .32.32zM64.76 23a.32.32 0 0 1-.32.33.35.35 0 0 1-.32-.33.33.33 0 0 1 .32-.32.31.31 0 0 1 .32.32zM36.8 36.33a.32.32 0 1 1-.32-.32.32.32 0 0 1 .32.32zm.72 4.09a.31.31 0 0 1-.32.31.32.32 0 0 1-.32-.32.33.33 0 0 1 .33-.32.32.32 0 0 1 .31.33zm15.11-28.09a.32.32 0 1 1 .32.32.31.31 0 0 1-.32-.32zM33.08 36.74a.31.31 0 0 1 .31-.32.32.32 0 0 1 .33.31.34.34 0 0 1-.32.33.31.31 0 0 1-.32-.32zM60.57 19a.32.32 0 0 1 .32.32.33.33 0 0 1-.33.32.32.32 0 0 1-.31-.33.31.31 0 0 1 .32-.31zM31.61 34.52a.32.32 0 0 1 .32-.32.33.33 0 1 1 0 .65.32.32 0 0 1-.32-.33zm.58-15.02a.33.33 0 0 1-.31-.33.32.32 0 1 1 .31.33zm-1.38-.68a.32.32 0 1 1 0 .64.32.32 0 1 1 0-.64zm1.64 3.86a.32.32 0 1 1-.32.32.33.33 0 0 1 .32-.32zm4.7-9.87a.3.3 0 0 1-.32.31.32.32 0 0 1-.32-.32.34.34 0 0 1 .33-.32.31.31 0 0 1 .31.33zm-1.53 20.63a.32.32 0 1 1 .33-.31.32.32 0 0 1-.33.31zm22.69 2.15a.31.31 0 0 1-.31-.33.32.32 0 0 1 .32-.32.32.32 0 0 1 .31.33.31.31 0 0 1-.32.32zm-27.93-5.04a.31.31 0 0 1 .32.32.32.32 0 0 1-.64 0 .3.3 0 0 1 .32-.32zm2.99 4.17a.32.32 0 0 1-.32-.32.32.32 0 0 1 .33-.32.33.33 0 0 1 .32.33.32.32 0 0 1-.33.31zm-.99-5.26a.31.31 0 0 1 .31-.33.32.32 0 0 1 .33.32.32.32 0 0 1-.32.32.31.31 0 0 1-.32-.31zm24.87 11.37a.32.32 0 1 1-.32.32.3.3 0 0 1 .32-.32zM43.84 39a.32.32 0 0 1 .33.31.33.33 0 0 1-.65 0 .32.32 0 0 1 .32-.31z"/></g><g opacity=".25" fill="#06f"><path d="M55.16 45.21a.43.43 0 0 1 .31-.43 22.07 22.07 0 0 0 2.77-1.34A20.4 20.4 0 0 0 61.61 41c.36-.32.7-.64 1-1a.43.43 0 0 1 .65-.05.45.45 0 0 1 0 .66 21.37 21.37 0 0 1-4.77 3.69 22.47 22.47 0 0 1-2.66 1.29c-.35.14-.67-.03-.67-.38zM44.25 6.12a.45.45 0 0 1 .45.37.43.43 0 0 1-.33.49l-1.55.36a19.47 19.47 0 0 0-3.12 1.15c-.61.3-1.21.63-1.79 1a.48.48 0 0 1-.54 0 .45.45 0 0 1-.16-.49.46.46 0 0 1 .22-.29 20.36 20.36 0 0 1 3.86-1.81 22 22 0 0 1 2.86-.77zM24.19 20.27l-.17.86a23.94 23.94 0 0 0-.38 3.26v1.11c0 .37-.15.49-.39.52a.44.44 0 0 1-.49-.46A26.36 26.36 0 0 1 23 22l.35-1.86a.44.44 0 0 1 .47-.36.45.45 0 0 1 .37.49zM70 18.55a.44.44 0 0 1-.34.43.45.45 0 0 1-.52-.31l-.27-.79A21.85 21.85 0 0 0 67.05 14a1.66 1.66 0 0 1-.13-.27.44.44 0 0 1 .26-.52.44.44 0 0 1 .54.19l.94 1.7A23.57 23.57 0 0 1 70 18.3a.54.54 0 0 1 0 .25zM42 45.74a.44.44 0 0 1-.59.4l-1.55-.55a21.43 21.43 0 0 1-3.38-1.71.44.44 0 0 1-.22-.49.45.45 0 0 1 .39-.34.52.52 0 0 1 .34.12l2 1.09a20.48 20.48 0 0 0 2.63 1 .45.45 0 0 1 .38.48zM30.44 10.28a.45.45 0 0 1 .37.24.41.41 0 0 1 0 .47l-.67.84a23.11 23.11 0 0 0-1.4 2 .44.44 0 1 1-.74-.46l1.23-1.8.87-1.1a.5.5 0 0 1 .34-.19zM72.2 22.44a.42.42 0 0 1-.42-.36l-.29-1.53-.48-1.9a.45.45 0 0 1 .27-.58.44.44 0 0 1 .57.32 26.35 26.35 0 0 1 .74 3.28.89.89 0 0 1 0 .43.42.42 0 0 1-.39.34zm-.33 8.07a.44.44 0 0 1 .43.54 18 18 0 0 1-.46 1.75l-.59 1.74a.45.45 0 0 1-.43.29.44.44 0 0 1-.4-.32.54.54 0 0 1 0-.31 21.77 21.77 0 0 0 .75-2.33l.25-1a.44.44 0 0 1 .45-.36zm-1.3-15.38a.44.44 0 0 1-.32.42.43.43 0 0 1-.5-.22l-.43-.87-1.28-2.18a.45.45 0 0 1 0-.53.44.44 0 0 1 .75 0l1.09 1.82.64 1.25a.57.57 0 0 1 .05.31zm-41.24-.28a.44.44 0 0 1 .45.64l-.64 1.25-.77 1.86a.62.62 0 0 1-.17.28.44.44 0 0 1-.53 0 .42.42 0 0 1-.16-.5l.45-1.17c.3-.72.65-1.41 1-2.1.11-.11.23-.26.37-.26zm34.49 20.96a.52.52 0 0 1 .09-.28 19.17 19.17 0 0 0 1.52-3 .43.43 0 0 1 .57-.33.43.43 0 0 1 .24.61l-.88 1.92-.73 1.29a.43.43 0 0 1-.51.2.44.44 0 0 1-.3-.41zM33.87 9.3a.41.41 0 0 1 .42.27.4.4 0 0 1-.1.47l-1 .91a20.26 20.26 0 0 0-1.4 1.54.54.54 0 0 1-.32.25.45.45 0 0 1-.48-.2.44.44 0 0 1 0-.52 24 24 0 0 1 1.74-1.9l.76-.7a.37.37 0 0 1 .38-.12zM50.9 44.62a.43.43 0 0 1 .39-.43l1.48-.35 1.82-.58a.44.44 0 1 1 .3.82l-1.38.46a20.72 20.72 0 0 1-2 .5.44.44 0 0 1-.61-.42zm-19.74-2.9a.4.4 0 0 1 .25-.4.38.38 0 0 1 .45 0l1.37 1.28a.42.42 0 0 1 0 .6.43.43 0 0 1-.59 0l-1.21-1.12c-.14-.08-.28-.16-.27-.36zm-.47-4.42a.43.43 0 0 1-.28.4.43.43 0 0 1-.51-.16q-.42-.61-.78-1.26l-.18-.32a.43.43 0 0 1 .17-.58.43.43 0 0 1 .59.15l.35.61.53.85a.53.53 0 0 1 .11.31zM63.15 6.68a.43.43 0 0 1 .24-.43.44.44 0 0 1 .5.08l1 .91a4 4 0 0 1 .3.28.44.44 0 0 1 0 .61.43.43 0 0 1-.62 0L63.2 6.9a.35.35 0 0 1-.05-.22z"/><path d="M66.28 15.79a.42.42 0 0 1-.37-.2l-.93-1.52a.42.42 0 0 1 .13-.62.43.43 0 0 1 .62.17l.9 1.47a.45.45 0 0 1-.35.7zM36.55 41a.41.41 0 0 1-.23.4.38.38 0 0 1-.43 0 14.08 14.08 0 0 1-1.46-1.22.44.44 0 0 1 0-.58.43.43 0 0 1 .59-.07l1.42 1.18a.37.37 0 0 1 .11.29zM59.36 7.59a.44.44 0 0 1-.63.44l-1.61-.9a.43.43 0 0 1-.12-.58.44.44 0 0 1 .61-.16l1 .55.56.34a.37.37 0 0 1 .19.31zM65 42.9a.41.41 0 0 1 .37.26.42.42 0 0 1-.11.5l-1.09 1-.27.23a.44.44 0 0 1-.6-.07.43.43 0 0 1 0-.6l1.32-1.19a.41.41 0 0 1 .38-.13zM67.29 22a.46.46 0 0 1-.4.49.42.42 0 0 1-.46-.34l-.4-1.71a.42.42 0 0 1 .31-.55.43.43 0 0 1 .53.33l.32 1.32.1.46zM36.77 8a.44.44 0 0 1-.19-.83l1.24-.7.34-.18a.44.44 0 0 1 .57.21.42.42 0 0 1-.19.57L37 7.94a.46.46 0 0 1-.23.06zM54 5.85a3.62 3.62 0 0 1-.47-.12l-1.32-.34a.41.41 0 0 1-.33-.39.42.42 0 0 1 .55-.49l1.51.39.25.07a.42.42 0 0 1 .27.5.43.43 0 0 1-.46.38zM29.22 30.4a.38.38 0 0 1 .36.27l.58 1.75a.41.41 0 0 1-.28.53.42.42 0 0 1-.54-.27l-.58-1.72a.44.44 0 0 1 .46-.56zm.41-10.06c0 .08 0 .21-.08.33-.14.46-.22.93-.32 1.4a.441.441 0 1 1-.86-.2l.38-1.62a.46.46 0 0 1 .58-.38.45.45 0 0 1 .3.47zm37.21 8.4a.44.44 0 0 1 .44.43.44.44 0 0 1-.44.44.43.43 0 0 1-.43-.44.41.41 0 0 1 .43-.43zM27.87 10.53a.44.44 0 0 1 .43-.45.46.46 0 0 1 .45.43.44.44 0 1 1-.88.02zm30.35-5.75a.44.44 0 0 1 .44.43.43.43 0 0 1-.43.44.44.44 0 1 1 0-.87zm9.1 35.44a.44.44 0 1 1 0 .87.45.45 0 0 1-.45-.43.44.44 0 0 1 .45-.44zm-28.17 2.24a.44.44 0 0 1 .44.44.44.44 0 0 1-.45.43.44.44 0 1 1 0-.87zm28.58-23.41a.44.44 0 0 1-.43-.44.44.44 0 0 1 .45-.43.44.44 0 0 1 .42.45.41.41 0 0 1-.44.42zM61.72 7.1a.43.43 0 0 1-.45.43.46.46 0 0 1-.43-.45.45.45 0 0 1 .45-.42.44.44 0 0 1 .43.44zm-2.26 33.52a.45.45 0 0 1 .44.44.44.44 0 0 1-.45.43.43.43 0 0 1-.43-.44.44.44 0 0 1 .44-.43zm9.17-18.96a.41.41 0 0 1 .43.43.44.44 0 0 1-.43.44.44.44 0 0 1-.44-.44.42.42 0 0 1 .44-.43zm-43.05-1.85a.44.44 0 0 1 0 .87.45.45 0 0 1-.44-.44.44.44 0 0 1 .44-.43zm42.15 17.78a.41.41 0 0 1-.45.42.44.44 0 0 1-.42-.45.45.45 0 0 1 .45-.42.43.43 0 0 1 .42.45zm.49-7.04a.44.44 0 1 1-.44.43.43.43 0 0 1 .44-.43zm-42.66-.13a.44.44 0 0 1 .43.44.44.44 0 1 1-.43-.44zm4.93-13.9a.44.44 0 0 1 .44.43.44.44 0 1 1-.88 0 .44.44 0 0 1 .44-.43zm39.56 14.01a.45.45 0 0 1 .44.43.44.44 0 0 1-.44.44.41.41 0 0 1-.43-.43.43.43 0 0 1 .43-.44zM26.32 14a.41.41 0 0 1-.43-.43.44.44 0 0 1 .43-.44.44.44 0 0 1 .44.44.43.43 0 0 1-.44.43zm9.56-8.36a.42.42 0 0 1 .43.44.44.44 0 0 1-.44.44.45.45 0 0 1-.43-.45.42.42 0 0 1 .44-.43zm29.81 31.83a.43.43 0 0 1-.43.44.42.42 0 0 1-.44-.42.43.43 0 0 1 .42-.45.44.44 0 0 1 .45.43zm5.16-15.42a.43.43 0 0 1-.44.43A.46.46 0 0 1 70 22a.44.44 0 0 1 .45-.43.42.42 0 0 1 .4.48zM32.92 40.09a.42.42 0 0 1-.43.44.44.44 0 1 1 0-.87.43.43 0 0 1 .43.43zm.98 5.55a.41.41 0 0 1-.44.42.42.42 0 0 1-.42-.44.43.43 0 0 1 .44-.43.44.44 0 0 1 .42.45zM54.39 7.55a.44.44 0 0 1 .43-.45.44.44 0 0 1 .44.44.42.42 0 0 1-.43.43.42.42 0 0 1-.44-.42zm-26.52 33.1a.42.42 0 0 1 .43-.44.46.46 0 0 1 .45.43.45.45 0 0 1-.44.44.42.42 0 0 1-.44-.43z"/><path d="M65.16 16.55a.42.42 0 0 1 .43.43.44.44 0 0 1-.44.44.45.45 0 0 1-.43-.45.41.41 0 0 1 .44-.42zM25.89 37.64a.43.43 0 0 1 .43-.43.44.44 0 1 1 0 .87.42.42 0 0 1-.43-.44zm.78-20.38a.42.42 0 0 1-.42-.44.44.44 0 1 1 .42.44zm-1.87-.91a.43.43 0 0 1 .43.44.44.44 0 0 1-.44.43.44.44 0 0 1-.43-.44.42.42 0 0 1 .44-.43zm2.2 5.23a.43.43 0 0 1 .43.44.42.42 0 0 1-.44.43.44.44 0 1 1 0-.87zm6.4-13.39a.42.42 0 0 1-.44.43.44.44 0 0 1-.43-.44.45.45 0 0 1 .47-.44.44.44 0 0 1 .4.45zm-2.08 27.99a.44.44 0 0 1-.42-.45.41.41 0 0 1 .44-.42.42.42 0 0 1 .43.44.45.45 0 0 1-.45.43zm30.77 2.9a.41.41 0 0 1-.42-.44.43.43 0 1 1 .86 0 .41.41 0 0 1-.44.44zm-37.88-6.83a.43.43 0 0 1 .44.43.44.44 0 0 1-.44.44.43.43 0 0 1-.43-.44.42.42 0 0 1 .43-.43zm4.06 5.66a.42.42 0 0 1-.43-.44.44.44 0 1 1 .87 0 .42.42 0 0 1-.44.44zm-1.34-7.14a.41.41 0 0 1 .42-.44.43.43 0 1 1-.42.43zm15.54 12.99a.44.44 0 0 1 0 .87.44.44 0 0 1-.45-.42.44.44 0 0 1 .45-.45z"/></g><rect x=".78" y="6.26" width="37.71" height="37.71" rx="18.85" fill="#a6c4dd"/><path d="M13.33,26.8l-.77,3.3-9.36-3h6L10,23.5h6l1.74-9.38H24.4c4.62,0,6.29,1.74,5.63,5.3l-.15.82a5.47,5.47,0,0,1-3.74,4.61v.07c2.25.76,2.87,2.47,2.42,4.91L28.2,31.7c-.66,3.56-3.33,5.47-7.79,5.47h-7L15.32,26.8Zm6.45,0-1.31,7.08H21a2.43,2.43,0,0,0,2.74-2.28l.37-2c.39-2.14-.33-2.8-2.36-2.8Zm1.74-9.39L20.39,23.5h1.74c1.67,0,2.79-.59,3.13-2.43l.24-1.29c.31-1.64-.25-2.37-1.83-2.37Z" fill="#fff"/><rect x="53.01" y=".54" width="49.15" height="49.15" rx="24.57" fill="#06f"/><path d="M64.11 22.49c-1.11-1.44-.89-2.44.55-3.43l5 4.87a.38.38 0 0 1 .12.33 1.86 1.86 0 0 1-.56 2.22l1.77 2a4.53 4.53 0 0 0 .67-6.31c0-.11-.11-.11-.11-.22l-6-6.09c-.33-.33-.56-.67-.78-.89l-3.21 3.1a4.52 4.52 0 0 0 .56 6.31zm8.97-8.97a4.89 4.89 0 0 0-.78-.66 8.9 8.9 0 0 0-1-.67 8.1 8.1 0 0 1 .66-.55 1.93 1.93 0 0 1 2.66-.33l.33.33L76.29 13 79 15.63l2.1-2-4.54-4.54a4.36 4.36 0 0 0-5.65-.22c-1.22.89-2.21 2.11-3.32 3.1l3.54 3.55zm2.1-.88l-6.09 5.97 1.77 1.78 6.09-5.98-1.77-1.77zm-9.3 17.05l-1.33 1.44c-.22-.22-.33-.45-.55-.56a1.9 1.9 0 0 1-.44-2.65.84.84 0 0 1 .44-.45l3-2.88a8.4 8.4 0 0 0 1-1l-2.1-2-4.21 4.1a4.52 4.52 0 0 0-.44 5.76A32.18 32.18 0 0 0 64.44 35l3.43-3.43zm14.06-18.05c1.44-1.22 2.44-1.11 3.66.44-.12.11-.23.34-.45.45l-3.87 3.87c-1.22 1.33-1.88 1.22-3.1.22l-2 2a4.73 4.73 0 0 0 6.65.33l.11-.11 6.53-6.54c.11-.11.11-.22.22-.33L85 9.32a4.81 4.81 0 0 0-6.65 0l-.33.33 1 1a7.78 7.78 0 0 1 .92.99zm2.32 6.863l1.775-1.775 5.869 5.869-1.775 1.775zM65.11 27.47l5.97 5.87 1.78-1.77-5.87-5.87-1.88 1.77zm10.18 11.19l-.22-.23c-1.55 1.11-2.55.89-3.54-.55l4.76-4.76a1.86 1.86 0 0 1 1.71-.44 2.36 2.36 0 0 1 1.11.66l2-1.88a4.68 4.68 0 0 0-6.59-.46l-4.1 4-2.88 2.88 3 3.1a4.25 4.25 0 0 0 3.77 1 4.16 4.16 0 0 0 2.76-1.55 14.8 14.8 0 0 1-1.78-1.77zm17.94-13.18l-1.88 1.88c1 1.66.88 2.44-.67 3.66l-4.87-4.88a1.33 1.33 0 0 1-.33-1.1 9.5 9.5 0 0 1 .52-1.66l-1.88-1.89-.22.23a4.68 4.68 0 0 0 0 6.53l.22.22 6.2 6.2c.11.11.22.22.33.22a36.68 36.68 0 0 0 3-3 4.54 4.54 0 0 0-.44-6.42zm-2.44-10.41l-3.43 3.43 2 2 1.43-1.5c.22.22.33.44.45.55a1.81 1.81 0 0 1 .33 2.55l-.33.33-1.33 1.33-2.77 2.77c.11.11.11.22.22.22.55.66 1.11 1.22 1.66 1.77a63.54 63.54 0 0 0 4.76-4.65 4.53 4.53 0 0 0 0-5.87 34.74 34.74 0 0 0-2.99-2.93zM78.281 35.662l5.982-5.982 1.775 1.775-5.982 5.982zm3.879 1.108L83.71 38c-1.33 1.66-2.55 1.77-3.88.33L76.4 34.9l-.33-.33-1.77 1.76 4.65 4.87a4.31 4.31 0 0 0 5.2.22 44.94 44.94 0 0 0 3.54-3.21l-3.54-3.43z" fill="#fff"/></svg>